<svg xmlns="http://www.w3.org/2000/svg" width="1200" height="360" viewBox="0 0 1200 360" role="img" aria-labelledby="title desc">
  <title id="title">Pick and Tell</title><desc id="desc">Interactive AI storybook graduation project banner</desc>
  <defs><linearGradient id="bg" x1="0" y1="0" x2="1" y2="1"><stop offset="0" stop-color="#35205f"/><stop offset=".55" stop-color="#6b3fa0"/><stop offset="1" stop-color="#f18f8f"/></linearGradient><linearGradient id="page" x1="0" y1="0" x2="0" y2="1"><stop stop-color="#fff8e8"/><stop offset="1" stop-color="#f2d8b4"/></linearGradient></defs>
  <rect width="1200" height="360" rx="28" fill="url(#bg)"/>
  <circle cx="1110" cy="35" r="120" fill="#ffd86b" opacity=".16"/><circle cx="885" cy="345" r="190" fill="#fff" opacity=".06"/>
  <g transform="translate(70 60)" font-family="Segoe UI, Arial, sans-serif">
    <text x="0" y="62" fill="#ffffff" font-size="62" font-weight="800">Pick &amp; Tell</text>
    <text x="2" y="111" fill="#f8eefd" font-size="24">선택에 따라 이야기가 달라지는 AI 체험형 동화</text>
    <rect x="0" y="150" width="390" height="48" rx="24" fill="#ffd86b"/>
    <text x="27" y="182" fill="#3a245e" font-size="20" font-weight="800">AI MAJOR GRADUATION PROJECT</text>
  </g>
  <g transform="translate(735 52)">
    <path d="M0 72Q90 34 165 72v180Q88 212 0 250z" fill="url(#page)"/>
    <path d="M330 72Q240 34 165 72v180q77-40 165-2z" fill="url(#page)"/>
    <path d="M165 72v180" stroke="#ad7c69" stroke-width="4"/>
    <path d="M72 108c20-42 66-29 73 7 7-36 53-49 73-7-8 49-73 77-73 77s-65-28-73-77z" fill="#ef7892" opacity=".9"/>
    <path d="M242 103v80M215 127h54M215 158h54" stroke="#7251a3" stroke-width="8" stroke-linecap="round"/>
    <circle cx="242" cy="212" r="23" fill="#ffd86b"/><path d="M236 203v18l16-9z" fill="#4c2f78"/>
  </g>
</svg>
